# xmcd CD database file
#
# Track frame offsets:
#	150
#	15455
#	31620
#	47200
#	63813
#	78080
#	93900
#	108900
#	119488
#	134160
#	150708
#	167100
#
# Disc length: 2428 seconds
#
# Revision: 0
# Processed by: cddbd v1.5.2PL0 Copyright (c) Steve Scherf et al.
# Submitted via: CDex 1.40Release
#
DISCID=8e097a0c
DTITLE=Memphis Willie B. - Hard Working Man Blues
DYEAR=1961
DGENRE=Blues
TTITLE0=Lonsome Home Blues
TTITLE1=L&N Blues
TTITLE2=Hardw Working Man Blues
TTITLE3=Dying Mother Blues
TTITLE4=Honey Maker Blues
TTITLE5=P 38 Blues
TTITLE6=Funny Caper Blues
TTITLE7=Good Potatoes
TTITLE8=I Have Found Somebody New
TTITLE9=Uncle Sam Blues
TTITLE10=Wine Drinking Woman
TTITLE11=Car MAchine Blues
EXTD=YEAR: 1961 ID3G: 0
EXTT0=
EXTT1=
EXTT2=
EXTT3=
EXTT4=
EXTT5=
EXTT6=
EXTT7=
EXTT8=
EXTT9=
EXTT10=
EXTT11=
PLAYORDER=
